{"title":"Gucci Mane ft Swizz Beatz - Gucci Time [KingPinVideos]","uid":5827120,"size":70327514,"categoryP":"video","categoryS":"music_videos","magnet":"?xt=urn:btih:cba9cee83c235b2b631eb70b40721da09cdc386d&amp;dn=Gucci+Mane+ft+Swizz+Beatz+-+Gucci+Time+%5BKingPinVideos%5D&amp;tr=udp%3A%2F%2Ftracker.openbittorrent.com%3A80&amp;tr=udp%3A%2F%2Fopen.demonii.com%3A1337&amp;tr=udp%3A%2F%2Ftracker.coppersurfer.tk%3A6969&amp;tr=udp%3A%2F%2Fexodus.desync.com%3A6969","seeders":0,"leechers":0,"uploader":"KingPinMan","files":6,"time":1284334483,"description":"\n\n[img]http://img838.imageshack.us/img838/9922/guccimanetime2.png[/img]\n\n[code]General\nComplete name                    : Gucci Mane ft Swizz Beats - Gucci Time [KingPinVideos].mpg\nFormat                           : MPEG-PS\nFile size                        : 67.1 MiB\nDuration                         : 3mn 16s\nOverall bit rate                 : 2 856 Kbps\nWriting library                  : encoded by TMPGEnc 4.0 XPress Version. 4.7.4.299\n\nVideo\nID                               : 224 (0xE0)\nFormat                           : MPEG Video\nFormat version                   : Version 1\nFormat settings, BVOP            : Yes\nFormat settings, Matrix          : Default\nDuration                         : 3mn 16s\nBit rate mode                    : Constant\nBit rate                         : 2 615 Kbps\nNominal bit rate                 : 2 700 Kbps\nWidth                            : 384 pixels\nHeight                           : 208 pixels\nDisplay aspect ratio             : 16:9\nFrame rate                       : 29.970 fps\nResolution                       : 8 bits\nScan type                        : Progressive\nBits/(Pixel*Frame)               : 1.092\nStream size                      : 61.4 MiB (92%)\nWriting library                  : TMPGEnc XPress 4.7.4.299\n\nAudio\nID                               : 192 (0xC0)\nFormat                           : MPEG Audio\nFormat version                   : Version 1\nFormat profile                   : Layer 2\nDuration                         : 3mn 16s\nBit rate mode                    : Constant\nBit rate                         : 128 Kbps\nChannel(s)                       : 2 channels\nSampling rate                    : 48.0 KHz\nStream size                      : 3.01 MiB (4%)[/code]","torrent":{"xt":"urn:btih:cba9cee83c235b2b631eb70b40721da09cdc386d","amp;dn":"Gucci+Mane+ft+Swizz+Beatz+-+Gucci+Time+%5BKingPinVideos%5D","amp;tr":["udp%3A%2F%2Ftracker.openbittorrent.com%3A80","udp%3A%2F%2Fopen.demonii.com%3A1337","udp%3A%2F%2Ftracker.coppersurfer.tk%3A6969","udp%3A%2F%2Fexodus.desync.com%3A6969"],"infoHash":"cba9cee83c235b2b631eb70b40721da09cdc386d","infoHashBuffer":{"type":"Buffer","data":[203,169,206,232,60,35,91,43,99,30,183,11,64,114,29,160,156,220,56,109]},"announce":[],"urlList":[]}}